<svg width="19" height="19" viewBox="0 0 19 19" fill="none" xmlns="http://www.w3.org/2000/svg">
<path fill-rule="evenodd" clip-rule="evenodd" d="M9.11906 2.02752C9.42956 2.02752 9.68156 2.27952 9.68156 2.59002C9.68156 2.90052 9.42956 3.15252 9.11906 3.15252H6.31481C4.37681 3.15252 3.12506 4.48002 3.12506 6.53427V12.7698C3.12506 14.824 4.37681 16.1515 6.31481 16.1515H12.9328C14.8708 16.1515 16.1233 14.824 16.1233 12.7698V9.74877C16.1233 9.43827 16.3753 9.18627 16.6858 9.18627C16.9963 9.18627 17.2483 9.43827 17.2483 9.74877V12.7698C17.2483 15.4653 15.5136 17.2765 12.9328 17.2765H6.31481C3.73406 17.2765 2.00006 15.4653 2.00006 12.7698V6.53427C2.00006 3.83877 3.73406 2.02752 6.31481 2.02752H9.11906ZM15.6513 2.68647L16.564 3.59922C17.0088 4.04322 17.2533 4.63347 17.2525 5.26197C17.2525 5.89047 17.008 6.47997 16.564 6.92322L10.9323 12.555C10.519 12.9682 9.96851 13.1962 9.38351 13.1962H6.57401C6.42251 13.1962 6.27701 13.1347 6.17126 13.026C6.06551 12.918 6.00776 12.7717 6.01151 12.6195L6.08201 9.78522C6.09626 9.22122 6.32351 8.69097 6.72251 8.29122L12.328 2.68647C13.2445 1.77147 14.7348 1.77147 15.6513 2.68647ZM11.8663 4.73847L7.51826 9.08697C7.32401 9.28122 7.21376 9.53922 7.20701 9.81297L7.15076 12.0712H9.38351C9.66851 12.0712 9.93551 11.961 10.1373 11.7592L14.5116 7.38372L11.8663 4.73847ZM13.123 3.48222L12.6613 3.94272L15.3066 6.58872L15.769 6.12747C16 5.89647 16.1275 5.58897 16.1275 5.26197C16.1275 4.93422 16 4.62597 15.769 4.39497L14.8563 3.48222C14.3785 3.00597 13.6015 3.00597 13.123 3.48222Z" fill="black"/>
</svg>
