<svg width="1352" height="782" viewBox="0 0 1352 782" fill="none" xmlns="http://www.w3.org/2000/svg">
<path d="M53.5 0V782" stroke="#DCDCDD"/>
<path d="M236.5 0V782" stroke="#DCDCDD"/>
<path d="M419.5 0V782" stroke="#DCDCDD"/>
<path d="M602.5 0V782" stroke="#DCDCDD"/>
<path d="M785.5 0V782" stroke="#DCDCDD"/>
<path d="M968.5 0V782" stroke="#DCDCDD"/>
<path d="M1151.5 0V782" stroke="#DCDCDD"/>
<path d="M0 56H1352" stroke="#DCDCDD"/>
<path d="M39 79H1352" stroke="#DCDCDD"/>
<path d="M39 127H1352" stroke="#DCDCDD"/>
<path d="M39 175H1352" stroke="#DCDCDD"/>
<path d="M39 223H1352" stroke="#DCDCDD"/>
<path d="M39 271H1352" stroke="#DCDCDD"/>
<path d="M39 319H1352" stroke="#DCDCDD"/>
<path d="M39 367H1352" stroke="#DCDCDD"/>
<path d="M39 415H1352" stroke="#DCDCDD"/>
<path d="M39 463H1352" stroke="#DCDCDD"/>
<path d="M39 511H1352" stroke="#DCDCDD"/>
<path d="M39 559H1352" stroke="#DCDCDD"/>
<path d="M39 607H1352" stroke="#DCDCDD"/>
<path d="M39 655H1352" stroke="#DCDCDD"/>
<path d="M39 703H1352" stroke="#DCDCDD"/>
<path d="M39 751H1352" stroke="#DCDCDD"/>
</svg>
